<svg width="200" height="64" viewBox="0 0 200 64" fill="none" xmlns="http://www.w3.org/2000/svg">
<g clip-path="url(#clip0_2215_1252)">
<g clip-path="url(#clip1_2215_1252)">
<mask id="mask0_2215_1252" style="mask-type:luminance" maskUnits="userSpaceOnUse" x="41" y="12" width="117" height="41">
<path d="M41.5139 12.4099H157.514V52.4099H41.5139V12.4099Z" fill="white"/>
</mask>
<g mask="url(#mask0_2215_1252)">
<path fill-rule="evenodd" clip-rule="evenodd" d="M99.525 31.6399C99.7817 31.409 99.9863 31.126 100.125 30.8099C100.276 30.4754 100.354 30.1128 100.354 29.7459C100.354 29.379 100.276 29.0163 100.125 28.6819C99.9909 28.3677 99.7855 28.089 99.525 27.8679C99.275 27.6609 99.025 27.5609 98.775 27.5609H95.293V31.9609H98.775C99.025 31.9609 99.275 31.8549 99.525 31.6399ZM100.712 25.8749C101.327 26.2819 101.82 26.8249 102.192 27.5109C102.565 28.1987 102.757 28.9703 102.75 29.7529C102.757 30.5313 102.565 31.2987 102.192 31.9819C101.845 32.6453 101.336 33.2104 100.712 33.6249C100.097 34.0319 99.454 34.2319 98.774 34.2319H95.293V37.9959C95.293 38.3539 95.185 38.6459 94.971 38.8749C94.757 39.1039 94.478 39.2109 94.127 39.2109C93.777 39.2109 93.52 39.0959 93.305 38.8609C93.0886 38.6258 92.973 38.3152 92.983 37.9959V26.4899C92.983 26.1469 93.098 25.8539 93.333 25.6259C93.57 25.3969 93.856 25.2759 94.206 25.2759H98.767C99.447 25.2759 100.097 25.4759 100.705 25.8829" fill="black"/>
<path d="M100.712 25.8749C101.327 26.2819 101.82 26.8249 102.192 27.5109C102.565 28.1987 102.757 28.9703 102.75 29.7529C102.757 30.5313 102.565 31.2987 102.192 31.9819C101.845 32.6453 101.336 33.2104 100.712 33.6249C100.097 34.0319 99.454 34.2319 98.774 34.2319H95.293V37.9959C95.293 38.3539 95.185 38.6459 94.971 38.8749C94.757 39.1039 94.478 39.2109 94.127 39.2109C93.777 39.2109 93.52 39.0959 93.305 38.8609C93.0886 38.6258 92.973 38.3152 92.983 37.9959V26.4899C92.983 26.1469 93.098 25.8539 93.333 25.6259C93.57 25.3969 93.856 25.2759 94.206 25.2759H98.767C99.447 25.2759 100.097 25.4759 100.705 25.8829M99.525 31.6399C99.768 31.4259 99.968 31.1549 100.125 30.8119C100.276 30.4773 100.354 30.1144 100.354 29.7474C100.354 29.3803 100.276 29.0175 100.125 28.6829C99.9909 28.3687 99.7855 28.09 99.525 27.8689C99.275 27.6619 99.025 27.5619 98.775 27.5619H95.293V31.9619H98.775C99.025 31.9619 99.275 31.8549 99.525 31.6399Z" stroke="black" stroke-width="0.357"/>
<path fill-rule="evenodd" clip-rule="evenodd" d="M111.658 28.6539C111.937 28.8819 112.072 29.1459 112.072 29.4539C112.072 29.8679 111.965 30.1739 111.743 30.3819C111.641 30.4821 111.52 30.5608 111.388 30.6136C111.255 30.6663 111.113 30.6919 110.971 30.6889C110.733 30.6808 110.499 30.6325 110.278 30.5459C110.188 30.5162 110.097 30.4902 110.006 30.4679C109.756 30.4046 109.495 30.3954 109.241 30.441C108.987 30.4865 108.745 30.5857 108.533 30.7319C108.205 30.9459 107.94 31.2679 107.733 31.7029C107.525 32.1389 107.418 32.6529 107.418 33.2529V37.9889C107.418 38.3389 107.304 38.6249 107.075 38.8609C106.846 39.0959 106.553 39.2109 106.203 39.2109C105.853 39.2109 105.559 39.0959 105.33 38.8609C105.217 38.7462 105.128 38.6098 105.069 38.46C105.01 38.3101 104.982 38.1499 104.987 37.9889V29.7389C104.987 29.3959 105.102 29.1029 105.33 28.8679C105.56 28.6319 105.852 28.5179 106.203 28.5179C106.553 28.5179 106.846 28.6319 107.075 28.8679C107.304 29.1039 107.418 29.3889 107.418 29.7389V29.9959C107.728 29.4523 108.197 29.0163 108.762 28.7459C109.345 28.4609 109.986 28.3144 110.635 28.3179C111.043 28.3179 111.386 28.4319 111.665 28.6609" fill="black"/>
<path d="M111.658 28.6539C111.937 28.8819 112.072 29.1459 112.072 29.4539C112.072 29.8679 111.965 30.1739 111.743 30.3819C111.641 30.4821 111.52 30.5608 111.388 30.6136C111.255 30.6663 111.113 30.6919 110.971 30.6889C110.733 30.6808 110.499 30.6325 110.278 30.5459C110.188 30.5162 110.097 30.4902 110.006 30.4679C109.756 30.4046 109.495 30.3954 109.241 30.441C108.987 30.4865 108.745 30.5857 108.533 30.7319C108.205 30.9459 107.94 31.2679 107.733 31.7029C107.525 32.1389 107.418 32.6529 107.418 33.2529V37.9889C107.418 38.3389 107.304 38.6249 107.075 38.8609C106.846 39.0959 106.553 39.2109 106.203 39.2109C105.853 39.2109 105.559 39.0959 105.33 38.8609C105.217 38.7462 105.128 38.6098 105.069 38.46C105.01 38.3101 104.982 38.1499 104.987 37.9889V29.7389C104.987 29.3959 105.102 29.1029 105.33 28.8679C105.56 28.6319 105.852 28.5179 106.203 28.5179C106.553 28.5179 106.846 28.6319 107.075 28.8679C107.304 29.1039 107.418 29.3889 107.418 29.7389V29.9959C107.728 29.4523 108.197 29.0163 108.762 28.7459C109.345 28.4609 109.986 28.3144 110.635 28.3179C111.043 28.3179 111.386 28.4319 111.665 28.6609" stroke="black" stroke-width="0.357"/>
<path fill-rule="evenodd" clip-rule="evenodd" d="M120.744 32.0529C120.465 31.5529 120.094 31.1609 119.621 30.8889C119.148 30.6142 118.61 30.4712 118.063 30.4749C117.491 30.4749 116.969 30.6109 116.504 30.8889C116.033 31.1705 115.646 31.5726 115.382 32.0539C115.103 32.5609 114.967 33.1319 114.967 33.7679C114.967 34.4039 115.103 34.9749 115.382 35.4749C115.661 35.9749 116.032 36.3609 116.504 36.6319C116.976 36.9029 117.491 37.0459 118.063 37.0459C118.635 37.0459 119.157 36.9109 119.621 36.6319C120.095 36.3573 120.484 35.9569 120.744 35.4749C121.023 34.9749 121.159 34.4109 121.159 33.7679C121.159 33.1249 121.016 32.5529 120.744 32.0529ZM122.874 36.5819C122.396 37.4003 121.701 38.0704 120.866 38.5179C120.004 38.9773 119.04 39.2129 118.063 39.2029C117.048 39.2029 116.09 38.9749 115.246 38.5179C114.412 38.0704 113.719 37.4001 113.244 36.5819C112.758 35.7529 112.508 34.8109 112.508 33.7679C112.508 32.7249 112.751 31.7819 113.244 30.9529C113.721 30.1346 114.413 29.4629 115.246 29.0109C116.09 28.5459 117.026 28.3179 118.063 28.3179C119.1 28.3179 120.015 28.5529 120.865 29.0109C121.7 29.4625 122.395 30.1341 122.875 30.9529C123.361 31.7819 123.611 32.7249 123.611 33.7679C123.611 34.8109 123.368 35.7529 122.874 36.5819Z" fill="black" stroke="black" stroke-width="0.357"/>
<path fill-rule="evenodd" clip-rule="evenodd" d="M132.856 36.2099C133.414 35.5749 133.693 34.7819 133.693 33.8249C133.693 32.8679 133.421 32.0819 132.87 31.4459C132.32 30.8179 131.605 30.5029 130.725 30.5029C129.846 30.5029 129.124 30.8179 128.566 31.4459C128.009 32.0749 127.73 32.8679 127.73 33.8249C127.73 34.7819 128.009 35.5749 128.566 36.2109C129.124 36.8459 129.839 37.1679 130.726 37.1679C131.612 37.1679 132.306 36.8459 132.863 36.2109M133.578 29.0249C134.344 29.5033 134.966 30.1794 135.38 30.9819C135.823 31.8179 136.045 32.7679 136.045 33.8249C136.045 34.8819 135.83 35.8389 135.394 36.6749C134.958 37.5179 134.364 38.1749 133.614 38.6389C132.867 39.1085 132.001 39.3539 131.119 39.3459C130.484 39.3492 129.855 39.218 129.274 38.9609C128.695 38.7029 128.216 38.3889 127.837 38.0179V41.9109C127.837 42.2529 127.723 42.5459 127.494 42.7749C127.38 42.8893 127.244 42.9794 127.094 43.0396C126.944 43.0998 126.784 43.1288 126.622 43.1249C126.461 43.1296 126.302 43.1023 126.152 43.0446C126.002 42.987 125.865 42.9 125.749 42.7889C125.521 42.5609 125.406 42.2749 125.406 41.9179V29.7319C125.406 29.3889 125.521 29.0959 125.749 28.8679C125.979 28.6389 126.271 28.5179 126.622 28.5179C126.972 28.5179 127.265 28.6319 127.494 28.8679C127.723 29.0959 127.837 29.3889 127.837 29.7319V29.8109C128.166 29.4109 128.617 29.0679 129.203 28.7679C129.768 28.4728 130.396 28.3184 131.033 28.3179C131.969 28.3179 132.82 28.5529 133.578 29.0249Z" fill="black"/>
<path d="M132.856 36.2099C133.414 35.5749 133.693 34.7819 133.693 33.8249C133.693 32.8679 133.421 32.0819 132.87 31.4459C132.32 30.8179 131.605 30.5029 130.725 30.5029C129.846 30.5029 129.124 30.8179 128.566 31.4459C128.009 32.0749 127.73 32.8679 127.73 33.8249C127.73 34.7819 128.009 35.5749 128.566 36.2109C129.124 36.8459 129.839 37.1679 130.726 37.1679C131.612 37.1679 132.306 36.8459 132.863 36.2109M133.578 29.0249C134.344 29.5033 134.966 30.1794 135.38 30.9819C135.823 31.8179 136.045 32.7679 136.045 33.8249C136.045 34.8819 135.83 35.8389 135.394 36.6749C134.958 37.5179 134.364 38.1749 133.614 38.6389C132.867 39.1085 132.001 39.3539 131.119 39.3459C130.484 39.3492 129.855 39.218 129.274 38.9609C128.695 38.7029 128.216 38.3889 127.837 38.0179V41.9109C127.837 42.2529 127.723 42.5459 127.494 42.7749C127.38 42.8893 127.244 42.9794 127.094 43.0396C126.944 43.0998 126.784 43.1288 126.622 43.1249C126.461 43.1296 126.302 43.1023 126.152 43.0446C126.002 42.987 125.865 42.9 125.749 42.7889C125.521 42.5609 125.406 42.2749 125.406 41.9179V29.7319C125.406 29.3889 125.521 29.0959 125.749 28.8679C125.979 28.6389 126.271 28.5179 126.622 28.5179C126.972 28.5179 127.265 28.6319 127.494 28.8679C127.723 29.0959 127.837 29.3889 127.837 29.7319V29.8109C128.166 29.4109 128.617 29.0679 129.203 28.7679C129.768 28.4728 130.396 28.3184 131.033 28.3179C131.969 28.3179 132.82 28.5529 133.578 29.0249Z" stroke="black" stroke-width="0.357"/>
<path fill-rule="evenodd" clip-rule="evenodd" d="M142.951 28.3178C143.83 28.3178 144.66 28.5528 145.439 29.0248C146.212 29.4923 146.855 30.1454 147.312 30.9248C147.777 31.7248 148.013 32.5888 148.013 33.5178C148.009 33.6651 147.974 33.8099 147.908 33.9419C147.843 34.0739 147.749 34.1899 147.634 34.2818C147.395 34.4748 147.097 34.5785 146.79 34.5748H140.184C140.341 35.3458 140.714 35.9528 141.285 36.3888C141.841 36.82 142.526 37.0514 143.23 37.0458C143.773 37.0458 144.202 36.9958 144.51 36.8958C144.817 36.7958 145.06 36.6958 145.239 36.5818C145.418 36.4678 145.539 36.3958 145.611 36.3528C145.854 36.2388 146.075 36.1748 146.29 36.1748C146.569 36.1748 146.812 36.2748 147.012 36.4678C147.212 36.6608 147.312 36.8958 147.312 37.1538C147.312 37.5038 147.126 37.8238 146.755 38.1178C146.383 38.4178 145.882 38.6748 145.253 38.8818C144.64 39.0878 143.998 39.1939 143.351 39.1958C142.229 39.1958 141.257 38.9678 140.421 38.5108C139.608 38.0788 138.938 37.4215 138.49 36.6178C138.04 35.8108 137.81 34.9108 137.81 33.9038C137.81 32.7818 138.054 31.7888 138.533 30.9388C139.012 30.0888 139.648 29.4388 140.434 28.9888C141.2 28.5434 142.071 28.3094 142.958 28.3108L142.951 28.3178ZM142.951 30.4748C141.407 30.4748 140.491 31.1888 140.213 32.6108H145.453V32.4748C145.403 31.9248 145.124 31.4528 144.631 31.0608C144.156 30.6752 143.562 30.4678 142.951 30.4748Z" fill="black" stroke="black" stroke-width="0.357"/>
<path fill-rule="evenodd" clip-rule="evenodd" d="M156.92 28.6539C157.199 28.8819 157.335 29.1459 157.335 29.4539C157.335 29.8679 157.228 30.1739 157.006 30.3819C156.904 30.4821 156.784 30.5608 156.651 30.6136C156.518 30.6663 156.377 30.6919 156.234 30.6889C155.997 30.6808 155.762 30.6325 155.541 30.5459C155.451 30.5163 155.361 30.4902 155.269 30.4679C155.019 30.4047 154.758 30.3955 154.504 30.4411C154.25 30.4866 154.009 30.5857 153.796 30.7319C153.467 30.9459 153.203 31.2679 152.995 31.7029C152.788 32.1389 152.681 32.6529 152.681 33.2529V37.9889C152.685 38.1499 152.657 38.31 152.598 38.4598C152.539 38.6096 152.451 38.746 152.338 38.8609C152.109 39.0959 151.816 39.2109 151.465 39.2109C151.115 39.2109 150.822 39.0959 150.593 38.8609C150.48 38.7462 150.391 38.6098 150.332 38.46C150.273 38.3101 150.245 38.1499 150.25 37.9889V29.7389C150.25 29.3959 150.364 29.1029 150.593 28.8679C150.822 28.6319 151.115 28.5179 151.465 28.5179C151.816 28.5179 152.109 28.6319 152.338 28.8679C152.566 29.1039 152.681 29.3889 152.681 29.7389V29.9959C152.991 29.4522 153.46 29.0161 154.025 28.7459C154.608 28.4608 155.249 28.3144 155.898 28.3179C156.306 28.3179 156.649 28.4319 156.928 28.6609" fill="black"/>
<path d="M156.92 28.6539C157.199 28.8819 157.335 29.1459 157.335 29.4539C157.335 29.8679 157.228 30.1739 157.006 30.3819C156.904 30.4821 156.784 30.5608 156.651 30.6136C156.518 30.6663 156.377 30.6919 156.234 30.6889C155.997 30.6808 155.762 30.6325 155.541 30.5459C155.451 30.5163 155.361 30.4902 155.269 30.4679C155.019 30.4047 154.758 30.3955 154.504 30.4411C154.25 30.4866 154.009 30.5857 153.796 30.7319C153.467 30.9459 153.203 31.2679 152.995 31.7029C152.788 32.1389 152.681 32.6529 152.681 33.2529V37.9889C152.685 38.1499 152.657 38.31 152.598 38.4598C152.539 38.6096 152.451 38.746 152.338 38.8609C152.109 39.0959 151.816 39.2109 151.465 39.2109C151.115 39.2109 150.822 39.0959 150.593 38.8609C150.48 38.7462 150.391 38.6098 150.332 38.46C150.273 38.3101 150.245 38.1499 150.25 37.9889V29.7389C150.25 29.3959 150.364 29.1029 150.593 28.8679C150.822 28.6319 151.115 28.5179 151.465 28.5179C151.816 28.5179 152.109 28.6319 152.338 28.8679C152.566 29.1039 152.681 29.3889 152.681 29.7389V29.9959C152.991 29.4522 153.46 29.0161 154.025 28.7459C154.608 28.4608 155.249 28.3144 155.898 28.3179C156.306 28.3179 156.649 28.4319 156.928 28.6609" stroke="black" stroke-width="0.357"/>
<path d="M81.5519 32.4099C81.5519 21.3679 72.5859 12.4099 61.5329 12.4099C50.4799 12.4099 41.5149 21.3689 41.5149 32.4099C41.5149 39.6819 45.3969 46.0459 51.2089 49.5459L50.9449 21.7179C50.9659 18.9389 52.7179 21.3609 53.3249 21.9749C57.6799 26.3249 57.7229 26.3609 59.2379 27.6179C59.2746 27.6469 59.3202 27.6621 59.3669 27.6609C60.0469 27.6609 65.2719 27.6389 66.7589 27.6889C67.0669 27.6959 67.3529 27.7109 67.6249 27.7179C75.8459 27.7249 75.5389 35.7459 75.5389 35.7459C75.5389 38.7819 74.9589 40.9319 74.1229 42.4529C71.8859 46.5179 66.0019 46.6749 63.6129 42.6959C63.5287 42.5578 63.4525 42.4149 63.3849 42.2679C63.2919 42.0749 62.9989 42.1319 62.9849 42.3459C62.9199 43.4029 64.0639 45.3749 64.9079 46.0249C65.0579 46.1459 64.9789 46.3889 64.7859 46.3889C63.4059 46.4249 62.0839 46.4179 61.5829 46.4179C61.528 46.4179 61.4753 46.4397 61.4365 46.4785C61.3977 46.5174 61.3759 46.57 61.3759 46.6249C61.3759 47.5179 61.3969 51.0109 61.3969 51.6529V52.3959H61.5189C72.5719 52.3959 81.5369 43.4389 81.5369 32.3959L81.5519 32.4099Z" fill="black"/>
<path d="M61.411 52.4099C57.8144 52.3951 54.289 51.4057 51.21 49.5469L61.412 52.4119L61.411 52.4099Z" fill="white"/>
<path d="M61.3829 46.6318C61.3829 46.5178 61.4759 46.4248 61.5899 46.4248C62.0909 46.4248 63.4139 46.4248 64.7939 46.3958C64.9859 46.3958 65.0649 46.1458 64.9149 46.0318C64.0709 45.3818 62.9269 43.4108 62.9919 42.3538C62.9939 42.3069 63.0116 42.2619 63.0422 42.2263C63.0728 42.1906 63.1144 42.1661 63.1605 42.1569C63.2066 42.1477 63.2544 42.1542 63.2964 42.1754C63.3383 42.1966 63.372 42.2313 63.3919 42.2738C63.4639 42.4178 63.5349 42.5608 63.6209 42.7038C66.0089 46.6818 71.8929 46.5238 74.1309 42.4608C74.9669 40.9388 75.5459 38.7888 75.5459 35.7538C75.5459 35.7538 75.8539 27.7388 67.6319 27.7238C67.3437 27.7105 67.0553 27.7011 66.7669 27.6958C65.2869 27.6528 60.0529 27.6678 59.3739 27.6678C59.3275 27.6688 59.2823 27.6536 59.2459 27.6248C57.7299 26.3748 57.6859 26.3318 53.3329 21.9818C52.7179 21.3678 50.9729 18.9458 50.9529 21.7248L51.2169 49.5538C54.2975 51.4099 57.8223 52.3995 61.4189 52.4178V51.6748C61.4189 51.0248 61.3979 47.5388 61.3979 46.6458L61.3829 46.6318Z" fill="white"/>
<path fill-rule="evenodd" clip-rule="evenodd" d="M67.604 27.7179C67.604 29.2679 68.697 31.6959 69.677 32.8109C71.135 34.4679 73.366 35.3319 75.532 35.7389C75.532 35.7389 75.84 27.7109 67.604 27.7109" fill="#828282"/>
<path fill-rule="evenodd" clip-rule="evenodd" d="M60.5098 33.303C59.5448 33.303 58.7588 34.089 58.7588 35.053C58.7588 36.018 59.5448 36.803 60.5098 36.803C61.4758 36.803 62.2618 36.018 62.2618 35.053C62.2618 34.089 61.4758 33.303 60.5098 33.303Z" fill="black"/>
</g>
</g>
</g>
<defs>
<clipPath id="clip0_2215_1252">
<rect width="117" height="41" fill="white" transform="translate(41.5 11.5)"/>
</clipPath>
<clipPath id="clip1_2215_1252">
<rect width="117" height="41" fill="white" transform="translate(41.5 11.5)"/>
</clipPath>
</defs>
</svg>
