<svg width="200" height="64" viewBox="0 0 200 64" fill="none" xmlns="http://www.w3.org/2000/svg">
<g clip-path="url(#clip0_2215_1234)">
<g clip-path="url(#clip1_2215_1234)">
<path d="M55.573 30.4291V26.2521H69.553C69.696 26.9891 69.781 27.8621 69.781 28.8121C69.781 31.9431 68.924 35.8201 66.163 38.5821C63.478 41.3771 60.049 42.8681 55.5 42.8681C47.074 42.8681 39.99 36.0101 39.99 27.5831C39.99 19.1561 47.074 12.2971 55.5 12.2971C60.16 12.2971 63.478 14.1241 65.977 16.5091L63.032 19.4541C61.244 17.7761 58.82 16.4701 55.5 16.4701C49.348 16.4701 44.54 21.4281 44.54 27.5821C44.54 33.7361 49.348 38.6951 55.5 38.6951C59.49 38.6951 61.762 37.0931 63.218 35.6361C64.404 34.4511 65.184 32.7531 65.488 30.4291H55.573ZM91.084 33.0241C91.084 38.6921 86.647 42.8651 81.204 42.8651C75.76 42.8651 71.324 38.6891 71.324 33.0241C71.324 27.3211 75.76 23.1821 81.204 23.1821C86.648 23.1821 91.084 27.3211 91.084 33.0241ZM86.758 33.0241C86.758 29.4821 84.186 27.0591 81.204 27.0591C78.221 27.0591 75.65 29.4821 75.65 33.0241C75.65 36.5281 78.221 38.9891 81.204 38.9891C84.186 38.9921 86.758 36.5301 86.758 33.0241ZM112.345 33.0241C112.345 38.6921 107.909 42.8651 102.465 42.8651C97.022 42.8651 92.585 38.6891 92.585 33.0241C92.585 27.3211 97.022 23.1821 102.465 23.1821C107.909 23.1821 112.345 27.3211 112.345 33.0241ZM108.02 33.0241C108.02 29.4821 105.448 27.0591 102.466 27.0591C99.483 27.0591 96.911 29.4821 96.911 33.0241C96.911 36.5281 99.483 38.9891 102.466 38.9891C105.448 38.9921 108.02 36.5301 108.02 33.0241ZM132.758 23.7731V41.4501C132.758 48.7201 128.47 51.7021 123.399 51.7021C118.629 51.7021 115.757 48.4961 114.676 45.8861L118.442 44.3191C119.112 45.9211 120.755 47.8231 123.399 47.8231C126.644 47.8231 128.657 45.8101 128.657 42.0441V40.6301H128.508C127.538 41.8241 125.674 42.8661 123.327 42.8661C118.404 42.8661 113.893 38.5791 113.893 33.0601C113.893 27.5051 118.404 23.1801 123.327 23.1801C125.674 23.1801 127.538 24.2231 128.508 25.3801H128.657V23.7701H132.757L132.758 23.7731ZM128.954 33.0621C128.954 29.5921 126.641 27.0591 123.697 27.0591C120.714 27.0591 118.215 29.5931 118.215 33.0621C118.215 36.4921 120.714 38.9891 123.696 38.9891C126.644 38.9921 128.954 36.4931 128.954 33.0621ZM140.039 13.4361V42.2711H135.714V13.4361H140.039ZM156.449 36.2681L159.804 38.5051C158.723 40.1071 156.114 42.8681 151.602 42.8681C146.01 42.8681 141.833 38.5431 141.833 33.0271C141.833 27.1721 146.045 23.1851 151.116 23.1851C156.224 23.1851 158.72 27.2481 159.542 29.4471L159.99 30.5661L146.828 36.0091C147.836 37.9841 149.4 38.9921 151.599 38.9921C153.801 38.9921 155.33 37.9081 156.449 36.2681ZM146.12 32.7271L154.919 29.0741C154.436 27.8451 152.98 26.9861 151.267 26.9861C149.065 26.9861 146.01 28.9241 146.12 32.7271Z" fill="black"/>
</g>
</g>
<defs>
<clipPath id="clip0_2215_1234">
<rect width="121" height="40" fill="white" transform="translate(39.5 12)"/>
</clipPath>
<clipPath id="clip1_2215_1234">
<rect width="121" height="40" fill="white" transform="translate(39.5 12)"/>
</clipPath>
</defs>
</svg>
