<svg width="200" height="64" viewBox="0 0 200 64" fill="none" xmlns="http://www.w3.org/2000/svg">
<g clip-path="url(#clip0_2215_1306)">
<g clip-path="url(#clip1_2215_1306)">
<path d="M149.167 38.1839C149.167 41.8239 151.356 43.5939 155.349 43.5939C156.578 43.5634 157.8 43.3909 158.99 43.0799V38.8569C158.23 39.0982 157.436 39.2183 156.638 39.2129C154.994 39.2129 154.385 38.6979 154.385 37.1519V30.6819H159.149V26.3339H154.385V20.8219L149.179 21.9489V26.3339H145.722V30.6819H149.167V38.1839ZM132.938 38.2819C132.938 37.1549 134.068 36.6069 135.774 36.6069C136.816 36.6129 137.854 36.7419 138.866 36.9929V39.1819C137.869 39.7263 136.748 40.0036 135.612 39.9869C133.94 39.9869 132.938 39.3439 132.938 38.2819ZM134.531 43.6589C136.368 43.6589 137.85 43.2729 139.234 42.3389V43.3709H144.384V32.4499C144.384 28.2989 141.585 26.0199 136.916 26.0199C134.307 26.0199 131.729 26.6329 128.955 27.8879L130.823 31.7219C132.819 30.8819 134.497 30.3679 135.976 30.3679C138.119 30.3679 139.228 31.2039 139.228 32.9129V33.7489C137.966 33.4221 136.667 33.2594 135.363 33.2649C130.982 33.2649 128.343 35.1019 128.343 38.3879C128.343 41.3829 130.725 43.6669 134.524 43.6669L134.531 43.6569V43.6589ZM106.219 43.3799H111.759V34.5459H121.033V43.3709H126.588V20.8279H121.055V29.4909H111.78V20.8279H106.24L106.219 43.3799ZM85.1341 34.8369C85.1341 32.3869 87.0661 30.5199 89.6111 30.5199C90.9345 30.4931 92.2195 30.965 93.2111 31.8419V37.7979C92.7308 38.2518 92.1654 38.6061 91.5475 38.8406C90.9297 39.075 90.2716 39.1849 89.6111 39.1639C87.1011 39.1639 85.1341 37.2959 85.1341 34.8489V34.8369ZM93.2821 43.3829H98.4361V19.7009L93.2301 20.8279V27.2379C91.9051 26.4863 90.4054 26.0972 88.8821 26.1099C83.9251 26.1099 80.0271 29.9399 80.0271 34.8369C80.0128 35.9857 80.2276 37.1258 80.6588 38.1907C81.09 39.2556 81.7291 40.2239 82.5386 41.0391C83.3481 41.8543 84.312 42.5001 85.3738 42.9388C86.4356 43.3774 87.5742 43.6001 88.7231 43.5939C90.3659 43.6018 91.9681 43.0835 93.2951 42.1149L93.2821 43.3829ZM69.6341 30.2829C71.2761 30.2829 72.6601 31.3459 73.2081 32.9879H66.1041C66.6181 31.2939 67.9071 30.2839 69.6341 30.2839V30.2829ZM60.8561 34.8769C60.8561 39.8369 64.9131 43.7009 70.1271 43.7009C72.9931 43.7009 75.0871 42.9269 77.2471 41.1229L73.7991 38.0609C72.9931 38.9009 71.8021 39.3509 70.3881 39.3509C69.4983 39.3761 68.6217 39.1312 67.8738 38.6486C67.1259 38.1659 66.5417 37.4681 66.1981 36.6469H78.3401V35.3499C78.3401 29.9399 74.7021 26.0449 69.7421 26.0449C68.576 26.0273 67.4181 26.243 66.3365 26.6794C65.255 27.1157 64.2716 27.764 63.4443 28.5859C62.6169 29.4079 61.9623 30.387 61.5188 31.4656C61.0754 32.5443 60.8521 33.7007 60.8621 34.8669L60.8561 34.8769ZM51.8751 25.5619C53.7121 25.5619 54.7411 26.7199 54.7411 28.1069C54.7411 29.4939 53.7121 30.6509 51.8751 30.6509H46.3971V25.5619H51.8751ZM40.8521 43.3709H46.3901V35.1589H50.6061L54.8591 43.3709H61.0591L56.0991 34.3529C57.3595 33.8402 58.4378 32.962 59.1952 31.8315C59.9526 30.701 60.3544 29.3697 60.3491 28.0089C60.3491 23.9519 57.1621 20.8289 52.3891 20.8289H40.8511V43.3699L40.8521 43.3709Z" fill="black"/>
</g>
</g>
<defs>
<clipPath id="clip0_2215_1306">
<rect width="120" height="25" fill="white" transform="translate(40 19.5)"/>
</clipPath>
<clipPath id="clip1_2215_1306">
<rect width="120" height="25" fill="white" transform="translate(40 19.5)"/>
</clipPath>
</defs>
</svg>
