<svg width="200" height="64" viewBox="0 0 200 64" fill="none" xmlns="http://www.w3.org/2000/svg">
<g clip-path="url(#clip0_2215_1243)">
<path d="M36.828 24.6309C39.101 24.6309 40.497 25.4189 41.453 25.9309C41.972 26.2059 42.331 26.4029 42.689 26.4029C43.327 26.4029 43.806 25.9699 43.806 25.3789C43.806 24.0409 40.456 22.2689 36.908 22.2689C30.888 22.2689 26.303 26.7569 26.303 32.6609C26.303 38.5649 30.848 43.0129 36.908 43.0129C40.457 43.0129 43.806 41.2809 43.806 39.9029C43.806 39.3129 43.327 38.8799 42.689 38.8799C42.331 38.8799 41.972 39.0769 41.453 39.3519C40.497 39.8639 39.101 40.6119 36.828 40.6119C32.243 40.6119 28.815 37.1869 28.815 32.6219C28.815 28.0559 32.243 24.6319 36.828 24.6319V24.6309ZM52.218 27.1899C50.823 27.1899 49.627 27.7799 48.749 28.8039V28.6849C48.749 28.0159 48.231 27.5049 47.514 27.5049C46.836 27.5049 46.317 28.0159 46.317 28.6849V41.5169C46.317 42.1859 46.836 42.6969 47.514 42.6969C48.231 42.6969 48.75 42.1859 48.75 41.5169V33.5669C48.75 31.0469 49.866 29.4729 51.7 29.4729C52.218 29.4729 52.577 29.5509 52.896 29.6299C53.136 29.6699 53.335 29.7089 53.534 29.7089C54.212 29.7089 54.69 29.2359 54.69 28.6069C54.65 27.6229 53.414 27.1899 52.218 27.1899ZM68.764 27.5049C68.046 27.5049 67.528 28.0159 67.528 28.6849V29.7089C66.212 28.0559 64.298 27.1499 62.066 27.1499C57.8 27.1499 54.57 30.5349 54.57 35.0619C54.57 39.5099 57.88 43.0119 62.066 43.0119C64.219 43.0119 66.173 42.0679 67.528 40.4149V41.5169C67.528 42.1869 68.047 42.6969 68.764 42.6969C69.442 42.6969 69.96 42.1869 69.96 41.5169V28.6849C69.96 27.9769 69.402 27.5049 68.764 27.5049ZM67.528 35.0619C67.528 38.2889 65.256 40.7689 62.305 40.7689C59.315 40.7689 57.002 38.2499 57.002 35.0619C57.002 31.8739 59.275 29.4719 62.265 29.4719C65.215 29.4719 67.528 31.8739 67.528 35.0619ZM87.543 21.1279C86.826 21.1279 86.307 21.6399 86.307 22.3089V29.7089C84.992 28.0559 83.078 27.1499 80.845 27.1499C76.579 27.1499 73.35 30.5349 73.35 35.0619C73.35 39.5089 76.659 43.0119 80.845 43.0119C82.998 43.0119 84.952 42.0679 86.308 40.4149V41.5169C86.308 42.1859 86.866 42.7369 87.543 42.7369C88.221 42.7369 88.74 42.1859 88.74 41.5169V22.3089C88.74 21.6389 88.181 21.1289 87.543 21.1289V21.1279ZM86.307 35.0619C86.307 38.2889 84.035 40.7689 81.084 40.7689C78.094 40.7689 75.782 38.2499 75.782 35.0619C75.782 31.8739 78.054 29.4719 81.085 29.4719C84.075 29.4719 86.307 31.8739 86.307 35.0619ZM94.521 21.1279C93.844 21.1279 93.325 21.6399 93.325 22.3089V41.5169C93.325 42.1859 93.844 42.6969 94.521 42.6969C95.239 42.6969 95.757 42.1859 95.757 41.5169V22.3089C95.7383 21.9924 95.6004 21.6947 95.3711 21.4758C95.1418 21.2569 94.838 21.1329 94.521 21.1289V21.1279ZM106.601 27.1899C102.335 27.1899 99.106 30.5749 99.106 35.1009C99.106 39.6279 102.495 43.0509 107 43.0509C110.19 43.0509 112.741 41.5559 112.741 40.2969C112.741 39.7459 112.342 39.3129 111.744 39.3129C111.425 39.3129 111.106 39.5099 110.748 39.7459C110.07 40.1789 108.993 40.8479 107.08 40.8479C104.209 40.8479 101.976 38.8009 101.617 35.9279H112.462C113.379 35.9279 113.977 35.3769 113.977 34.4319C113.897 30.8499 111.187 27.1899 106.601 27.1899ZM111.465 33.9599H101.577C102.016 31.2439 104.049 29.3539 106.561 29.3539C109.193 29.3539 111.067 31.1649 111.465 33.9599ZM136.943 27.4649C136.305 27.4649 135.867 27.8189 135.747 28.4489L132.119 39.4699L128.371 28.7639C128.132 27.8979 127.613 27.5039 126.736 27.5039C125.899 27.5039 125.381 27.8979 125.141 28.7239L121.394 39.5099L117.765 28.5279C117.605 27.8579 117.167 27.4649 116.529 27.4649C116.131 27.4649 115.772 27.6229 115.533 27.9379C115.293 28.2519 115.253 28.6849 115.413 29.1979L119.679 41.6349C119.918 42.3829 120.477 42.7759 121.274 42.7759C122.39 42.7759 122.789 42.1459 122.949 41.6349L126.617 30.9289L130.285 41.5559C130.444 42.3429 131.042 42.7759 131.919 42.7759C132.797 42.7759 133.395 42.3829 133.674 41.5559L137.94 29.1179C138.099 28.6459 138.059 28.2129 137.82 27.9379C137.661 27.6229 137.342 27.4649 136.943 27.4649ZM142.126 22.0339C141.249 22.0339 140.571 22.7029 140.571 23.5689C140.571 24.4339 141.249 25.1039 142.126 25.1039C142.964 25.1039 143.681 24.4339 143.681 23.5689C143.681 22.7029 142.924 22.0339 142.126 22.0339ZM142.126 27.5049C141.448 27.5049 140.93 28.0159 140.93 28.6849V41.5169C140.93 42.1859 141.448 42.6969 142.126 42.6969C142.843 42.6969 143.362 42.1859 143.362 41.5169V28.6849C143.322 27.9769 142.843 27.5049 142.126 27.5049ZM152.732 33.8019C150.818 33.2119 149.144 32.7389 149.144 31.2829C149.144 30.1029 150.34 29.3149 152.094 29.3149C153.569 29.3149 154.526 29.8269 155.204 30.1809C155.643 30.4169 156.001 30.6139 156.4 30.6139C156.998 30.6139 157.397 30.2199 157.397 29.6299C157.397 28.3699 154.845 27.1899 152.214 27.1899C148.944 27.1899 146.752 28.8819 146.752 31.3619C146.752 34.3529 149.463 35.1799 151.855 35.8879C153.888 36.4779 155.603 36.9899 155.603 38.6039C155.603 39.9819 154.407 40.8479 152.453 40.8479C150.3 40.8479 149.144 40.0209 148.386 39.4699C147.948 39.1549 147.629 38.9199 147.27 38.9199C146.632 38.9199 146.193 39.3129 146.193 39.9029C146.193 41.1229 148.825 43.0129 152.294 43.0129C155.762 43.0129 157.995 41.2409 157.995 38.5249C157.995 35.3769 155.204 34.5499 152.732 33.8019ZM174.581 34.3929C174.581 30.8499 171.83 27.1899 167.245 27.1899C162.979 27.1899 159.749 30.5749 159.749 35.1009C159.749 39.6279 163.138 43.0509 167.643 43.0509C170.833 43.0509 173.385 41.5559 173.385 40.2969C173.385 39.7459 172.986 39.3129 172.388 39.3129C172.069 39.3129 171.75 39.5099 171.391 39.7459C170.713 40.1789 169.637 40.8479 167.723 40.8479C164.852 40.8479 162.62 38.8009 162.261 35.9279H173.106C174.023 35.8879 174.581 35.2979 174.581 34.3929ZM172.149 33.9599H162.261C162.699 31.2439 164.733 29.3539 167.245 29.3539C169.876 29.3539 171.75 31.1649 172.149 33.9599Z" fill="black"/>
</g>
<defs>
<clipPath id="clip0_2215_1243">
<rect width="161" height="33" fill="white" transform="translate(19.5 15.5)"/>
</clipPath>
</defs>
</svg>
