<svg width="200" height="64" viewBox="0 0 200 64" fill="none" xmlns="http://www.w3.org/2000/svg">
<g clip-path="url(#clip0_2215_1293)">
<mask id="mask0_2215_1293" style="mask-type:luminance" maskUnits="userSpaceOnUse" x="42" y="18" width="117" height="28">
<path d="M42.48 18.5901H158.48V45.5901H42.48V18.5901Z" fill="white"/>
</mask>
<g mask="url(#mask0_2215_1293)">
<path fill-rule="evenodd" clip-rule="evenodd" d="M57.9101 19.0122H54.8001V28.5812L47.8791 21.8152L45.6791 23.9652L52.6051 30.7312H42.8101V33.7712H52.6021L45.6801 40.5372L47.8791 42.6862L54.8021 35.9192V45.4892H57.9121V35.9172L64.8381 42.6862L67.0381 40.5372L60.1121 33.7692H69.9051V30.7302H57.9111L57.9101 19.0122ZM58.7851 27.6082L60.9841 29.7562L67.0361 23.9642L64.8361 21.8152L58.7851 27.6082ZM132.79 30.8412L135.524 31.2192C138.647 31.6712 140.1 33.0442 140.1 35.5432C140.1 37.5632 139.08 39.9732 134.225 39.9732C130.115 39.9732 127.72 38.0772 127.655 34.7732L127.644 34.1632H130.737L130.786 34.7082C130.892 35.8862 131.386 37.2382 134.278 37.2382C136.528 37.2382 136.838 36.4712 136.838 35.6432C136.838 35.0412 136.698 34.3782 135.016 34.1432L132.022 33.7152C129.424 33.3652 127.991 31.9452 127.991 29.7192C127.991 27.0182 130.202 25.3402 133.761 25.3402C137.326 25.3402 139.655 27.1002 139.841 29.9342L139.881 30.5702H136.636L136.582 30.0292C136.459 28.7692 135.438 28.0742 133.709 28.0742C131.226 28.0742 131.226 29.1992 131.226 29.5682C131.226 29.9112 131.226 30.6232 132.79 30.8412ZM118.56 25.3662C116.798 25.3662 115.354 25.8942 114.298 26.9102V25.7702H111.01V44.6102H114.298V38.4452C115.352 39.4502 116.796 39.9722 118.561 39.9722C122.642 39.9722 125.079 37.2422 125.079 32.6692C125.079 28.0962 122.641 25.3662 118.56 25.3662ZM118.148 28.2002C120.684 28.2002 121.766 29.5372 121.766 32.6692C121.766 35.8012 120.684 37.1372 118.148 37.1372C115.557 37.1372 114.298 35.6752 114.298 32.6682C114.298 29.6622 115.557 28.2002 118.148 28.2002ZM91.3341 28.1332V25.7702H78.8901V28.5042H86.8981L78.8901 37.2042V39.5702H91.4631V36.8362H83.3721L91.3341 28.1332ZM105.603 25.7702L101.606 35.4702L101.05 36.8902L97.0871 25.7702H93.1171L98.7091 39.5702H99.9991L99.0791 41.7762H95.2931V44.6112H98.3551C101.102 44.6112 101.744 43.3452 102.56 41.2872L108.96 25.7702H105.603ZM149.684 35.4702L153.681 25.7702H157.038L150.637 41.2872C149.822 43.3452 149.18 44.6112 146.433 44.6112H143.37V41.7762H147.156L148.076 39.5702H146.786L141.194 25.7702H145.165L149.127 36.8902L149.684 35.4702Z" fill="black"/>
</g>
</g>
<defs>
<clipPath id="clip0_2215_1293">
<rect width="117" height="28" fill="white" transform="translate(41.5 18)"/>
</clipPath>
</defs>
</svg>
