<svg width="200" height="64" viewBox="0 0 200 64" fill="none" xmlns="http://www.w3.org/2000/svg">
<g clip-path="url(#clip0_2215_1223)">
<g clip-path="url(#clip1_2215_1223)">
<path fill-rule="evenodd" clip-rule="evenodd" d="M114.995 26.831C113.598 25.301 111.855 24.519 109.806 24.519C107.834 24.519 105.878 25.896 104.673 27.259L104.678 24.712L100.998 24.707L100.958 45.59V45.864L104.658 45.87L104.673 39.339C105.791 40.594 107.56 41.331 109.527 41.336C111.692 41.336 113.511 40.564 114.939 39.044C116.378 37.514 117.109 35.354 117.115 32.879C117.12 30.349 116.408 28.315 114.995 26.831ZM108.922 27.96C110.177 27.96 111.24 28.432 112.078 29.362C112.942 30.262 113.384 31.441 113.379 32.869C113.374 34.307 112.947 35.599 112.063 36.539C111.219 37.438 110.163 37.895 108.907 37.895C107.672 37.895 106.64 37.443 105.756 36.528C104.876 35.583 104.45 34.298 104.45 32.854C104.455 31.426 104.897 30.247 105.766 29.347C106.64 28.412 107.672 27.96 108.912 27.96H108.922ZM118.99 27.822L118.974 36.635C118.969 38.535 119.493 39.893 120.519 40.665C121.159 41.148 121.973 41.392 122.939 41.392C123.681 41.392 124.845 41.092 124.845 41.092L124.515 37.88C124.515 37.88 123.665 38.155 123.254 37.86C122.862 37.58 122.669 36.98 122.669 36.081L122.685 27.822L126.11 27.827L126.115 24.763L122.69 24.758L122.7 20.356L119.005 20.351L118.995 24.753L115.895 24.747L118.99 27.822ZM88.664 20.117H70.444L70.439 23.767H77.721L77.691 40.803V41.138L81.543 41.143L81.528 23.772L88.664 23.767V20.117ZM69.04 29.438L63.558 23.94L57.127 17.5L54.357 20.26L58.41 24.32L49.519 33.18L61.473 45.154L64.207 42.43L60.121 38.334L69.041 29.439L69.04 29.438ZM57.642 35.303C57.5627 35.3284 57.4774 35.3284 57.398 35.303C57.317 35.278 57.251 35.243 57.103 35.095L55.493 33.479C55.35 33.336 55.309 33.265 55.283 33.184C55.2576 33.1047 55.2576 33.0193 55.283 32.94C55.309 32.859 55.345 32.793 55.493 32.645L60.57 27.578C60.712 27.436 60.783 27.395 60.864 27.375C60.9434 27.3496 61.0287 27.3496 61.108 27.375C61.19 27.4 61.256 27.436 61.403 27.583L63.014 29.2C63.157 29.342 63.197 29.413 63.217 29.494C63.2425 29.5733 63.2425 29.6587 63.217 29.738C63.192 29.82 63.157 29.886 63.009 30.033L57.931 35.1C57.794 35.242 57.722 35.278 57.641 35.303H57.642Z" fill="black"/>
<path fill-rule="evenodd" clip-rule="evenodd" d="M97.2121 26.928C95.7021 25.368 93.6501 24.508 91.5451 24.57C89.4161 24.57 87.5411 25.317 85.9701 26.796C84.3851 28.285 83.5761 30.353 83.5711 32.94C83.5661 35.527 84.3691 37.596 85.9501 39.09C87.5201 40.574 89.4001 41.331 91.5301 41.336C91.6121 41.341 91.6931 41.341 91.7741 41.341C93.7661 41.341 95.7381 40.487 97.1921 39.003C98.2541 37.911 99.5251 35.979 99.5301 32.971C99.5351 29.961 98.2751 28.026 97.2121 26.928ZM96.0481 32.966C96.0431 34.465 95.6011 35.705 94.7281 36.65C93.8581 37.59 92.7751 38.068 91.5101 38.068C90.2701 38.063 89.1971 37.585 88.3281 36.635C87.4801 35.71 87.0481 34.465 87.0481 32.945C87.0481 31.425 87.4851 30.185 88.3381 29.261C89.2081 28.321 90.2801 27.843 91.5251 27.843C92.7851 27.843 93.8681 28.325 94.7371 29.276C95.6111 30.221 96.0531 31.461 96.0481 32.966ZM130.313 30.424C130.313 29.484 130.806 27.416 133.531 27.416C134.496 27.416 135.045 27.741 135.507 28.127C135.955 28.498 136.178 29.413 136.178 30.17V30.526L131.68 31.227C128.118 31.771 126.075 33.687 126.064 36.493C126.059 37.946 126.588 39.191 127.594 40.106C128.585 41.006 129.942 41.483 131.544 41.489C133.561 41.489 135.076 40.762 136.158 39.263C136.163 39.898 136.163 40.538 136.163 41.133H139.913L139.939 30.358C139.944 28.6 139.37 26.898 138.237 25.962C137.119 25.042 135.655 24.57 133.536 24.564H133.505C131.889 24.564 130.176 24.991 129.022 25.993C127.665 27.167 127 29.027 127 30.465L130.313 30.425V30.424ZM132.016 38.256C130.684 38.251 129.82 37.494 129.826 36.33C129.831 35.12 130.674 34.414 132.478 34.11L136.173 33.484V33.52C136.163 36.31 134.46 38.256 132.031 38.256H132.016ZM141.708 20.366L141.673 41.021V41.112L144.992 41.122L145.027 20.463V20.372L141.708 20.366ZM146.938 39.857C146.938 39.501 147.059 39.197 147.314 38.942C147.568 38.688 147.873 38.562 148.224 38.562C148.579 38.562 148.889 38.688 149.138 38.942C149.392 39.197 149.519 39.502 149.519 39.857C149.519 40.218 149.392 40.517 149.139 40.767C148.884 41.021 148.579 41.143 148.223 41.143C147.868 41.143 147.563 41.021 147.313 40.767C147.191 40.6492 147.095 40.5076 147.03 40.3511C146.966 40.1945 146.934 40.0263 146.937 39.857H146.938ZM147.151 39.857C147.148 39.9997 147.174 40.1414 147.227 40.2739C147.28 40.4064 147.359 40.5269 147.46 40.6284C147.56 40.7298 147.68 40.81 147.812 40.8644C147.944 40.9188 148.085 40.9462 148.228 40.945C148.528 40.945 148.782 40.838 148.991 40.63C149.199 40.416 149.306 40.162 149.306 39.857C149.306 39.552 149.199 39.298 148.991 39.09C148.893 38.9865 148.775 38.9047 148.643 38.8496C148.512 38.7945 148.371 38.7674 148.228 38.77C147.928 38.77 147.674 38.876 147.466 39.09C147.364 39.1895 147.283 39.3089 147.229 39.4408C147.175 39.5727 147.148 39.7144 147.151 39.857ZM148.533 40.564L148.188 39.949H147.954V40.564H147.741V39.15H148.315C148.599 39.15 148.767 39.318 148.767 39.551C148.767 39.749 148.62 39.897 148.421 39.938L148.772 40.563L148.533 40.564ZM147.954 39.339V39.771H148.284C148.467 39.771 148.559 39.7 148.559 39.557C148.559 39.41 148.467 39.339 148.284 39.339H147.954Z" fill="black"/>
</g>
</g>
<defs>
<clipPath id="clip0_2215_1223">
<rect width="101" height="29" fill="white" transform="translate(49.5 17.5)"/>
</clipPath>
<clipPath id="clip1_2215_1223">
<rect width="101" height="29" fill="white" transform="translate(49.5 17.5)"/>
</clipPath>
</defs>
</svg>
